<?xml version="1.0" encoding="UTF-8" standalone="no"?>
<svg width="29px" height="32px" viewBox="0 0 29 32" version="1.1" xmlns="http://www.w3.org/2000/svg" xmlns:xlink="http://www.w3.org/1999/xlink">
    <!-- Generator: Sketch 3.7.2 (28276) - http://www.bohemiancoding.com/sketch -->
    <title>add_book</title>
    <desc>Created with Sketch.</desc>
    <defs></defs>
    <g id="Page-1" stroke="none" stroke-width="1" fill="none" fill-rule="evenodd">
        <g id="Home" transform="translate(-1292.000000, -32.000000)">
            <g id="add_book" transform="translate(1293.000000, 33.000000)">
                <g id="Layer_1">
                    <g id="_x31_KWJq1_1_">
                        <g id="Group">
                            <path d="M24.5073735,0.0583657588 C24.5733852,0.111420233 24.6431323,0.160505837 24.7047082,0.218287938 C24.8904864,0.392801556 24.965428,0.607003891 24.888035,0.853015564 C24.8085409,1.10585603 24.6349027,1.26490272 24.3625681,1.29087549 C24.2467704,1.30190661 24.1293969,1.29811284 24.0127237,1.29811284 C17.1259728,1.29840467 10.2392218,1.29916342 3.35241245,1.2966537 C2.87433852,1.2964786 2.42457198,1.37182879 2.02891051,1.66178988 C1.38747082,2.1318677 1.11169261,2.94677043 1.33896887,3.70996109 C1.56402724,4.46562257 2.24871595,4.99558366 3.04593385,5.02861868 C3.19161479,5.03468872 3.33770428,5.0333463 3.48356031,5.0333463 C10.4870428,5.0335214 17.4905253,5.0335214 24.4940078,5.0335214 L24.8941634,5.0335214 C24.902393,5.13361868 24.915,5.21655642 24.9150584,5.29949416 C24.9161089,8.08143969 24.9163424,10.8633852 24.9154086,13.6453307 C24.9152335,14.0841829 24.693677,14.3518482 24.3259728,14.3681907 C23.974786,14.3837743 23.7088716,14.1512451 23.6796887,13.7985409 C23.6716926,13.7018872 23.6750195,13.6041245 23.6750195,13.5068872 C23.6748444,11.2307393 23.6748444,8.95459144 23.6748444,6.67850195 L23.6748444,6.28838521 L23.2543774,6.28838521 C16.8248054,6.28838521 10.3952335,6.28523346 3.96560311,6.29188716 C3.03554475,6.29287938 2.11435798,6.29883268 1.28101167,5.67303502 C1.27301556,5.82951362 1.26332685,5.93077821 1.26332685,6.0320428 C1.26262646,12.9091051 1.27412451,19.7861673 1.25142023,26.6631128 C1.24768482,27.8017704 2.06416342,28.7161284 3.29492218,28.7077237 C6.47550584,28.68607 9.65638132,28.700428 12.8371401,28.7007782 C12.9440661,28.7007782 13.0516342,28.6976265 13.1578016,28.7078988 C13.4167121,28.7329377 13.585856,28.8796693 13.6724125,29.1194942 C13.7608949,29.3645136 13.6952918,29.5794747 13.5185019,29.7612257 C13.453249,29.8283463 13.3739883,29.8818093 13.3010895,29.9415759 L2.6785214,29.9415759 C2.64536965,29.9244163 2.61402724,29.8990272 2.57883268,29.8913813 C0.999863813,29.5483658 0.0102723735,28.3445136 0.00910505837,26.7392218 C0.00315175097,18.9051946 -0.00280155642,11.0712257 0.0029766537,3.23719844 C0.00379377432,2.17599222 0.436692607,1.30062257 1.29863813,0.653229572 C1.72832685,0.330466926 2.22747082,0.18385214 2.73694553,0.058307393 C9.99373541,0.0583657588 17.2505253,0.0583657588 24.5073735,0.0583657588 L24.5073735,0.0583657588 Z" id="Shape" stroke="#A5CD39" stroke-width="0.5" fill="#A5CD39"></path>
                            <path d="M19.312821,29.9416342 C18.7451556,29.8181907 18.1617899,29.7430156 17.6125097,29.5634241 C14.3013619,28.4805642 12.2384825,25.3435798 12.4900973,21.8151946 C12.7266537,18.4975681 15.3339689,15.6854475 18.7117121,15.1047082 C22.7990078,14.4019844 26.7321012,17.266284 27.3199027,21.3737743 C27.9229961,25.5881323 25.0093774,29.3709339 20.7600584,29.8922568 C20.7044358,29.8990856 20.6512062,29.9248249 20.5968093,29.9416926 C20.1688132,29.9416342 19.7408755,29.9416342 19.312821,29.9416342 L19.312821,29.9416342 Z M19.9353502,28.6988521 C23.3607782,28.6976265 26.1460506,25.9139883 26.1542218,22.483716 C26.1624514,19.0436381 23.3685409,16.2399805 19.9336576,16.2414397 C16.5009922,16.2427821 13.7036965,19.0492996 13.71,22.4854669 C13.7161868,25.9052918 16.5163424,28.7000778 19.9353502,28.6988521 L19.9353502,28.6988521 Z" id="Shape" stroke="#00ADEE" stroke-width="0.5" fill="#00ADEE"></path>
                            <path d="M3.14445525,3.77527237 L3.14445525,2.57865759 L23.6751362,2.57865759 L23.6751362,3.17976654 L23.6751362,3.77533074 C16.8181518,3.77527237 9.98848249,3.77527237 3.14445525,3.77527237 L3.14445525,3.77527237 Z" id="Shape" fill="#A5CD39"></path>
                            <g id="eEZAwP_1_" transform="translate(15.408560, 18.210117)" fill="#00ADEE">
                                <path d="M5.09970817,3.96029183 L6.84828794,3.96029183 C7.38688716,3.96029183 7.92542802,3.95906615 8.4640856,3.96099222 C8.76163424,3.9620428 9.00291829,4.17799611 9.03169261,4.46258755 C9.06116732,4.75505837 8.86377432,5.02027237 8.57048638,5.07431907 C8.49846304,5.08762646 8.42287938,5.08429961 8.3488716,5.08441634 C7.31077821,5.0848249 6.27268482,5.08453307 5.23459144,5.08429961 L5.09964981,5.08429961 L5.09964981,5.21212062 C5.0998249,6.25027237 5.10023346,7.28836576 5.09970817,8.32645914 C5.09964981,8.40431907 5.10297665,8.48392996 5.08850195,8.55963035 C5.03293774,8.84894942 4.77478599,9.04149805 4.485,9.0168677 C4.20052529,8.99264591 3.9770428,8.75060311 3.97651751,8.45579767 C3.97464981,7.38250973 3.97558366,6.30933852 3.97546693,5.23610895 C3.97540856,5.19 3.97546693,5.14400778 3.97546693,5.08424125 L3.83048638,5.08424125 C2.76116732,5.08424125 1.69178988,5.08529183 0.622470817,5.08377432 C0.225583658,5.0831323 -0.0431322957,4.73171206 0.0654280156,4.36155642 C0.137568093,4.11571984 0.355447471,3.96029183 0.632976654,3.96011673 C1.42914397,3.95953307 2.22525292,3.96 3.02142023,3.96005837 C3.33344358,3.96011673 3.64535019,3.96011673 3.97575875,3.96011673 L3.97575875,3.797393 C3.97558366,2.73974708 3.9751751,1.68215953 3.97546693,0.624513619 C3.97552529,0.292062257 4.19894942,0.0423735409 4.50799611,0.026614786 C4.83367704,0.00998054475 5.0981323,0.263404669 5.09906615,0.599941634 C5.10105058,1.32968872 5.09976654,2.05955253 5.0998249,2.78941634 C5.09970817,3.17498054 5.09970817,3.56066148 5.09970817,3.96029183 L5.09970817,3.96029183 Z" id="Shape"></path>
                            </g>
                        </g>
                    </g>
                </g>
            </g>
        </g>
    </g>
</svg>