<?xml version="1.0" encoding="UTF-8" standalone="no"?>
<svg width="76px" height="76px" viewBox="0 0 76 76" version="1.1" xmlns="http://www.w3.org/2000/svg" xmlns:xlink="http://www.w3.org/1999/xlink">
    <!-- Generator: Sketch 3.7.2 (28276) - http://www.bohemiancoding.com/sketch -->
    <title>default_book</title>
    <desc>Created with Sketch.</desc>
    <defs></defs>
    <g id="Page-1" stroke="none" stroke-width="1" fill="none" fill-rule="evenodd">
        <g id="Home" transform="translate(-384.000000, -299.000000)">
            <g id="img_book_default" transform="translate(358.000000, 246.000000)">
                <g id="default_book" transform="translate(28.000000, 55.000000)">
                    <g id="n8e0Ps_1_" style="mix-blend-mode: multiply;" transform="translate(11.000000, 15.000000)">
                        <g id="Group">
                            <path d="M11.5186335,4.78977273 L22.249452,4.78977273 L22.249452,36.6865909 L11.5186335,36.6865909 C11.5186335,26.0611364 11.5186335,15.4575 11.5186335,4.78977273 L11.5186335,4.78977273 Z M21.2177082,30.7493182 L12.6009395,30.7493182 L12.6009395,34.6561364 L21.2177082,34.6561364 L21.2177082,30.7493182 L21.2177082,30.7493182 Z" id="Shape" fill="#C1BFC2"></path>
                            <path d="M9.03219929,37.6902273 C6.07225623,37.5102273 3.17107473,37.335 0.183117438,37.1529545 C0.791231317,26.9263636 1.3966121,16.7461364 2.00540925,6.50522727 C4.95032028,6.68318182 7.85150178,6.85840909 10.8551744,7.03977273 C10.2491103,17.2411364 9.64304626,27.42 9.03219929,37.6902273 L9.03219929,37.6902273 Z" id="Shape" fill="#9B9B9B"></path>
                            <path d="M40.7238149,7.005 C43.1439715,6.85431818 45.4923843,6.70840909 47.9084413,6.55909091 C48.5377367,16.7938636 49.1649822,26.9740909 49.7942776,37.2027273 C47.3713879,37.3547727 45.0229751,37.5013636 42.6123843,37.6527273 C41.983089,27.4493182 41.3558434,17.2663636 40.7238149,7.005 L40.7238149,7.005 Z" id="Shape" fill="#9B9B9B"></path>
                            <path d="M33.3868185,32.8425 L33.3868185,32.1920455 C33.3875018,23.28 33.3875018,14.3679545 33.3902349,5.45590909 C33.3902349,4.37590909 33.8664769,3.90545455 34.9405836,3.90477273 C36.0850676,3.90340909 37.2295516,3.90545455 38.3740356,3.90340909 C39.5820641,3.90136364 40.0268754,4.3425 40.0275587,5.56568182 C40.0309751,9.37227273 40.0316584,13.1795455 40.0316584,16.9861364 C40.0316584,22.0568182 40.0296085,27.1268182 40.028242,32.1968182 L40.028242,32.8425 L33.3868185,32.8425 L33.3868185,32.8425 Z M34.3837153,11.9904545 L39.0156299,11.9904545 L39.0156299,8.70409091 L34.3837153,8.70409091 L34.3837153,11.9904545 L34.3837153,11.9904545 Z" id="Shape" fill="#C1BFC2"></path>
                            <path d="M30.8703203,29.9461364 C28.6783772,30.0484091 26.5048826,30.15 24.2733096,30.255 C24.2056655,28.9397727 24.1352883,27.6661364 24.0758434,26.3925 C23.8360142,21.2590909 23.5989181,16.125 23.3638719,10.9915909 C23.3112598,9.85022727 23.259331,8.70886364 23.2285836,7.56818182 C23.2039858,6.63681818 23.708242,6.13636364 24.6497936,6.09409091 C25.8099929,6.04159091 26.9701922,5.98022727 28.1303915,5.91545455 C29.29879,5.85 29.8235445,6.34159091 29.8761566,7.51159091 C30.101637,12.5413636 30.3373665,17.5711364 30.5696797,22.6009091 C30.677637,24.9347727 30.7855943,27.2686364 30.8915018,29.6018182 C30.8949181,29.7013636 30.8792028,29.8015909 30.8703203,29.9461364 L30.8703203,29.9461364 Z" id="Shape" fill="#9B9B9B"></path>
                            <path d="M31.1900925,35.9488636 C31.2406548,37.3636364 31.3178648,38.7606818 31.3281139,40.1584091 C31.3322135,40.7679545 30.7582633,41.2629545 30.1173523,41.2997727 C28.8027331,41.3747727 27.4867473,41.4429545 26.1707616,41.4934091 C25.3549324,41.5254545 24.7673167,41.01 24.7174377,40.1931818 C24.6436441,38.985 24.6163132,37.7740909 24.5568683,36.5645455 C24.5432028,36.2856818 24.6245125,36.1540909 24.9231032,36.1431818 C26.9319288,36.0654545 28.9400712,35.9775 30.9488968,35.895 C30.9980925,35.8922727 31.0479715,35.9161364 31.1900925,35.9488636 L31.1900925,35.9488636 Z" id="Shape" fill="#9B9B9B"></path>
                            <path d="M22.2767829,3.15136364 L11.5131673,3.15136364 C11.5131673,2.49136364 11.4639715,1.85181818 11.5261495,1.22318182 C11.5958434,0.527727273 12.138363,0.0852272727 12.8530676,0.0825 C15.559516,0.0722727273 18.2659644,0.0722727273 20.9730961,0.0831818182 C21.6529537,0.0852272727 22.2193879,0.5625 22.2665338,1.2 C22.3136797,1.83272727 22.2767829,2.47227273 22.2767829,3.15136364 L22.2767829,3.15136364 Z" id="Shape" fill="#C1BFC2"></path>
                            <path d="M22.2658505,38.3502273 C22.2658505,39.0272727 22.3129964,39.6995455 22.2515018,40.3622727 C22.1968399,40.9527273 21.6331388,41.3952273 20.9997438,41.3986364 C18.2632313,41.4102273 15.5260356,41.4122727 12.7895231,41.3972727 C12.0604698,41.3938636 11.5384484,40.8572727 11.497452,40.1025 C11.4667046,39.5352273 11.4913025,38.9652273 11.4913025,38.3509091 C15.0880569,38.3502273 18.6581637,38.3502273 22.2658505,38.3502273 L22.2658505,38.3502273 Z" id="Shape" fill="#C1BFC2"></path>
                            <path d="M33.4161993,38.1395455 L40.055573,38.1395455 C40.0166263,38.9563636 40.0548897,39.7670455 39.9148185,40.5463636 C39.8171103,41.0897727 39.3169537,41.3918182 38.7409537,41.3986364 C37.3716726,41.4143182 36.0010249,41.4163636 34.6317438,41.3952273 C34.0147473,41.3863636 33.4708612,40.9111364 33.4278149,40.3090909 C33.3765694,39.6068182 33.4161993,38.8984091 33.4161993,38.1395455 L33.4161993,38.1395455 Z" id="Shape" fill="#C1BFC2"></path>
                            <path d="M0.097024911,38.7477273 C3.08429893,38.9284091 5.98411388,39.1029545 8.95088968,39.2822727 C8.90716014,39.7629545 8.90579359,40.2115909 8.81696797,40.6425 C8.69739502,41.2227273 8.13711032,41.6359091 7.49619929,41.5997727 C5.38624911,41.4845455 3.27629893,41.3515909 1.1677153,41.2015909 C0.538419929,41.1565909 0.0519288256,40.6206818 0.0286975089,39.9845455 C0.0136654804,39.5925 0.0696939502,39.1963636 0.097024911,38.7477273 L0.097024911,38.7477273 Z" id="Shape" fill="#9B9B9B"></path>
                            <path d="M2.08603559,4.90977273 C2.1304484,4.4325 2.13728114,3.99886364 2.21790747,3.57886364 C2.33201423,2.98295455 2.91006406,2.55409091 3.56874021,2.59090909 C5.66229181,2.70818182 7.75516014,2.84113636 9.8473452,2.98636364 C10.4930391,3.03068182 10.9884128,3.56522727 11.0143772,4.23613636 C11.0294093,4.62613636 10.966548,5.01886364 10.9358007,5.44772727 C7.97927402,5.26840909 5.0787758,5.09181818 2.08603559,4.90977273 L2.08603559,4.90977273 Z" id="Shape" fill="#9B9B9B"></path>
                            <path d="M47.758121,4.96568182 C45.3919431,5.11431818 43.0442135,5.26159091 40.634306,5.41227273 C40.6083416,4.97181818 40.5488968,4.56204545 40.569395,4.15636364 C40.6001423,3.52840909 41.0429039,3.015 41.6708327,2.96454545 C43.2765267,2.83431818 44.885637,2.73886364 46.4954306,2.66795455 C47.082363,2.64136364 47.5442562,3.06340909 47.6918434,3.63340909 C47.7219075,3.75068182 47.7512883,3.87136364 47.7547046,3.99 C47.7649537,4.28318182 47.758121,4.57568182 47.758121,4.96568182 L47.758121,4.96568182 Z" id="Shape" fill="#9B9B9B"></path>
                            <path d="M49.8790036,38.7975 C49.9111174,39.24 49.9678292,39.6163636 49.9589466,39.9913636 C49.9432313,40.6902273 49.4328256,41.2268182 48.7051388,41.2786364 C47.2005694,41.3863636 45.6932669,41.4763636 44.1866477,41.5472727 C43.3906335,41.5854545 42.8686121,41.1061364 42.788669,40.3234091 C42.7538221,39.9838636 42.7319573,39.6415909 42.6998434,39.2475 C45.1063345,39.0961364 47.4677295,38.9481818 49.8790036,38.7975 L49.8790036,38.7975 Z" id="Shape" fill="#9B9B9B"></path>
                            <path d="M33.4202989,36.4970455 L33.4202989,34.4931818 L39.9974947,34.4931818 L39.9974947,36.4970455 L33.4202989,36.4970455 L33.4202989,36.4970455 Z" id="Shape" fill="#C1BFC2"></path>
                            <path d="M24.4003986,33.5386364 L24.4003986,31.5409091 C26.5540783,31.4379545 28.727573,31.3329545 30.9652954,31.2259091 L30.9652954,33.2372727 C28.8047829,33.3375 26.6312883,33.4363636 24.4003986,33.5386364 L24.4003986,33.5386364 Z" id="Shape" fill="#9B9B9B"></path>
                        </g>
                    </g>
                    <circle id="Oval-2" stroke="#A3A1A3" stroke-width="3" cx="36" cy="36" r="36"></circle>
                </g>
            </g>
        </g>
    </g>
</svg>