<?xml version="1.0" encoding="UTF-8" standalone="no"?>
<svg width="30px" height="30px" viewBox="0 0 30 30" version="1.1" xmlns="http://www.w3.org/2000/svg" xmlns:xlink="http://www.w3.org/1999/xlink">
    <!-- Generator: Sketch 3.7.2 (28276) - http://www.bohemiancoding.com/sketch -->
    <title>notifications</title>
    <desc>Created with Sketch.</desc>
    <defs></defs>
    <g id="Page-1" stroke="none" stroke-width="1" fill="none" fill-rule="evenodd">
        <g id="Home" transform="translate(-1233.000000, -33.000000)" fill="#00ADEE">
            <g id="notifications" transform="translate(1233.000000, 33.000000)">
                <g id="Capa_1">
                    <path d="M28.7253913,22.4663478 C26.0376522,20.142 23.5503913,16.8626087 23.5503913,8.67495652 C23.5503913,3.93326087 19.6926522,0.0756521739 14.9508261,0.0756521739 C10.2083478,0.0756521739 6.35008696,3.93326087 6.35008696,8.67495652 C6.35008696,16.8700435 3.86373913,20.1461739 1.17365217,22.4685652 C0.427826087,23.1181304 0,24.0536087 0,25.0352609 C0,25.5755217 0.438,26.0135217 0.97826087,26.0135217 L10.2619565,26.0135217 C10.7148261,28.1869565 12.6447391,29.825087 14.9503043,29.825087 C17.2558696,29.825087 19.185913,28.187087 19.6386522,26.0135217 L28.9223478,26.0135217 C29.4626087,26.0135217 29.9006087,25.5755217 29.9006087,25.0352609 C29.9006087,24.0456522 29.4717391,23.1087391 28.7253913,22.4663478 L28.7253913,22.4663478 Z M14.9503043,27.8685652 C13.7320435,27.8685652 12.6910435,27.0952174 12.291913,26.0135217 L17.6086957,26.0135217 C17.2095652,27.0952174 16.1685652,27.8685652 14.9503043,27.8685652 L14.9503043,27.8685652 Z M2.34182609,24.057 C2.37743478,24.0183913 2.4153913,23.9816087 2.45543478,23.9467826 C6.55669565,20.406 8.30647826,15.8386957 8.30647826,8.67495652 C8.30647826,5.01208696 11.2871739,2.03217391 14.9506957,2.03217391 C18.6136957,2.03217391 21.5937391,5.01208696 21.5937391,8.67495652 C21.5937391,15.8321739 23.3437826,20.3993478 27.4471304,23.9476957 C27.4871739,23.9822609 27.5251304,24.0186522 27.5608696,24.057 L2.34182609,24.057 L2.34182609,24.057 Z" id="Shape"></path>
                </g>
            </g>
        </g>
    </g>
</svg>