<?xml version="1.0" encoding="UTF-8" standalone="no"?>
<svg width="24px" height="24px" viewBox="0 0 24 24" version="1.1" xmlns="http://www.w3.org/2000/svg" xmlns:xlink="http://www.w3.org/1999/xlink">
    <!-- Generator: Sketch 3.7.2 (28276) - http://www.bohemiancoding.com/sketch -->
    <title>search</title>
    <desc>Created with Sketch.</desc>
    <defs></defs>
    <g id="Page-1" stroke="none" stroke-width="1" fill="none" fill-rule="evenodd">
        <g id="Home" transform="translate(-854.000000, -151.000000)" fill="#FFFFFF">
            <g id="search" transform="translate(854.000000, 151.000000)">
                <g id="Capa_1">
                    <g id="Search__x28_and_thou_shall_find_x29_">
                        <path d="M23.4362727,21.4182857 L16.2553636,14.1961558 C17.2948052,12.7265455 17.9122987,10.933987 17.9122987,8.99298701 C17.9123377,4.02662338 13.908974,0 8.97109091,0 C4.03316883,0 0.0298051948,4.02662338 0.0298051948,8.99298701 C0.0298051948,13.9593506 4.03316883,17.985974 8.97109091,17.985974 C10.9008312,17.985974 12.6829481,17.3647792 14.1443377,16.3193377 L21.3252468,23.5413896 C21.6167532,23.8344156 21.998961,23.9812987 22.3811688,23.9812987 C22.7634545,23.9812987 23.1455844,23.8344156 23.4363506,23.5413896 C24.0193247,22.9553766 24.0193247,22.0042987 23.4362727,21.4182857 L23.4362727,21.4182857 Z M13.8272727,12.4582987 L13.2412208,13.2871169 L12.4168831,13.8769091 C11.4006623,14.6038442 10.2090779,14.9883117 8.97109091,14.9883117 C5.68414286,14.9883117 3.01024675,12.2986364 3.01024675,8.99298701 C3.01024675,5.6872987 5.68414286,2.99766234 8.97109091,2.99766234 C12.258039,2.99766234 14.931974,5.6872987 14.931974,8.99298701 C14.9326364,10.2377532 14.5504675,11.4360779 13.8272727,12.4582987 L13.8272727,12.4582987 Z" id="Shape"></path>
                    </g>
                </g>
            </g>
        </g>
    </g>
</svg>