<?xml version="1.0" encoding="UTF-8" standalone="no"?>
<svg width="320px" height="75px" viewBox="0 0 320 75" version="1.1" xmlns="http://www.w3.org/2000/svg" xmlns:xlink="http://www.w3.org/1999/xlink">
    <!-- Generator: Sketch 3.7.2 (28276) - http://www.bohemiancoding.com/sketch -->
    <title>wbooks_logo</title>
    <desc>Created with Sketch.</desc>
    <defs></defs>
    <g id="Page-1" stroke="none" stroke-width="1" fill="none" fill-rule="evenodd">
        <g id="Login" transform="translate(-559.000000, -354.000000)">
            <g id="wbooks_logo" transform="translate(559.000000, 354.000000)">
                <g id="wbooks_logo-01">
                    <g id="Layer_1">
                        <g id="Group">
                            <g id="n8e0Ps_1_">
                                <g id="Group">
                                    <path d="M20.4424099,8.52579545 L39.4866647,8.52579545 L39.4866647,65.3021318 L20.4424099,65.3021318 C20.4424099,46.3888227 20.4424099,27.51435 20.4424099,8.52579545 L20.4424099,8.52579545 Z M37.655603,54.7337864 L22.3632058,54.7337864 L22.3632058,61.6879227 L37.655603,61.6879227 L37.655603,54.7337864 L37.655603,54.7337864 Z" id="Shape" fill="#A5CD39"></path>
                                    <path d="M16.0296724,67.0886045 C10.7765866,66.7682045 5.62778648,66.4563 0.324983145,66.1322591 C1.40421822,47.9289273 2.47860279,29.8081227 3.55905049,11.5793045 C8.78545853,11.8960636 13.9342587,12.2079682 19.2649523,12.5307955 C18.1893551,30.6892227 17.1137579,48.8076 16.0296724,67.0886045 L16.0296724,67.0886045 Z" id="Shape" fill="#00ADEE"></path>
                                    <path d="M72.2735837,12.4689 C76.5686967,12.2006864 80.7364843,11.9409682 85.0243216,11.6751818 C86.141148,29.8930773 87.2543366,48.0138818 88.371163,66.2208545 C84.0711994,66.4914955 79.9034118,66.7524273 75.6252755,67.0218545 C74.5084491,48.8597864 73.3952606,30.7341273 72.2735837,12.4689 L72.2735837,12.4689 Z" id="Shape" fill="#00ADEE"></path>
                                    <path d="M59.2524306,58.45965 L59.2524306,57.3018409 C59.2536433,41.4384 59.2536433,25.5749591 59.2584938,9.71151818 C59.2584938,7.78911818 60.1036925,6.95170909 62.0099369,6.95049545 C64.0410815,6.94806818 66.0722262,6.95170909 68.1033708,6.94806818 C70.2472895,6.94442727 71.0367075,7.72965 71.0379201,9.90691364 C71.0439833,16.6826455 71.0451959,23.4595909 71.0451959,30.2353227 C71.0451959,39.2611364 71.041558,48.2857364 71.0391328,57.3103364 L71.0391328,58.45965 L59.2524306,58.45965 L59.2524306,58.45965 Z M61.0216486,21.3430091 L69.2420245,21.3430091 L69.2420245,15.4932818 L61.0216486,15.4932818 L61.0216486,21.3430091 L61.0216486,21.3430091 Z" id="Shape" fill="#A5CD39"></path>
                                    <path d="M54.7863376,53.3041227 C50.8962409,53.4861682 47.038885,53.667 43.0784561,53.8539 C42.9584063,51.5127955 42.8335061,49.2457227 42.7280078,46.97865 C42.3023769,37.8411818 41.8815965,28.7025 41.464454,19.5650318 C41.3710819,17.5334045 41.2789225,15.5017773 41.2243545,13.4713636 C41.1807,11.8135364 42.0756163,10.9227273 43.7466117,10.8474818 C45.8056467,10.7540318 47.8646817,10.6448045 49.9237167,10.5295091 C51.9973032,10.413 52.9285982,11.2880318 53.0219702,13.3706318 C53.422136,22.3236273 53.8404912,31.2766227 54.2527832,40.2296182 C54.4443778,44.3838955 54.6359723,48.5381727 54.823929,52.6912364 C54.8299921,52.8684273 54.8021018,53.0468318 54.7863376,53.3041227 L54.7863376,53.3041227 Z" id="Shape" fill="#00ADEE"></path>
                                    <path d="M55.3538455,63.9889773 C55.4435797,66.5072727 55.5806062,68.9940136 55.5987955,71.4819682 C55.6060713,72.5669591 54.5874674,73.4480591 53.4500264,73.5135955 C51.1169384,73.6470955 48.7814252,73.7684591 46.445912,73.8582682 C44.9980393,73.9153091 43.955183,72.9978 43.8666615,71.5438636 C43.7356981,69.3933 43.6871931,67.2378818 43.5816949,65.0848909 C43.5574424,64.5885136 43.7017446,64.3542818 44.2316612,64.3348636 C47.7967748,64.1965091 51.3606758,64.03995 54.9257894,63.8931 C55.0130983,63.8882455 55.1016198,63.9307227 55.3538455,63.9889773 L55.3538455,63.9889773 Z" id="Shape" fill="#00ADEE"></path>
                                    <path d="M39.5351697,5.60942727 L20.4327089,5.60942727 C20.4327089,4.43462727 20.3454,3.29623636 20.4557488,2.17726364 C20.5794364,0.939354545 21.5422596,0.151704545 22.810664,0.14685 C27.6138663,0.128645455 32.4170687,0.128645455 37.2214837,0.148063636 C38.4280443,0.151704545 39.4333093,1.00125 39.5169803,2.136 C39.6006514,3.26225455 39.5351697,4.40064545 39.5351697,5.60942727 L39.5351697,5.60942727 Z" id="Shape" fill="#A5CD39"></path>
                                    <path d="M39.5157677,68.2634045 C39.5157677,69.4685455 39.5994387,70.6651909 39.4903026,71.8448455 C39.3932927,72.8958545 38.3928782,73.6835045 37.268776,73.6895727 C32.4122182,73.7102045 27.5544478,73.7138455 22.69789,73.6871455 C21.4040205,73.6810773 20.477576,72.7259455 20.4048186,71.38245 C20.3502505,70.3727045 20.393905,69.3581045 20.393905,68.2646182 C26.777156,68.2634045 33.1131147,68.2634045 39.5157677,68.2634045 L39.5157677,68.2634045 Z" id="Shape" fill="#A5CD39"></path>
                                    <path d="M59.3045735,67.8883909 L71.0876377,67.8883909 C71.0185182,69.3423273 71.0864251,70.7853409 70.8378372,72.1725273 C70.6644321,73.1397955 69.7767915,73.6774364 68.7545498,73.6895727 C66.3244519,73.7174864 63.8919288,73.7211273 61.461831,73.6835045 C60.3668318,73.6677273 59.4015834,72.8218227 59.3251881,71.7501818 C59.2342413,70.5001364 59.3045735,69.2391682 59.3045735,67.8883909 L59.3045735,67.8883909 Z" id="Shape" fill="#A5CD39"></path>
                                    <path d="M0.172192562,68.9709545 C5.47378327,69.2925682 10.6201581,69.6032591 15.8853701,69.9224455 C15.8077622,70.7780591 15.805337,71.5766318 15.6476959,72.34365 C15.4354868,73.3764545 14.4411353,74.1119182 13.3036943,74.0475955 C9.55911243,73.8424909 5.81453052,73.6058318 2.07237386,73.3388318 C0.955547456,73.2587318 0.0921593993,72.3048136 0.0509301944,71.1724909 C0.0242524735,70.47465 0.123687615,69.7695273 0.172192562,68.9709545 L0.172192562,68.9709545 Z" id="Shape" fill="#00ADEE"></path>
                                    <path d="M3.70214008,8.73939545 C3.78096062,7.88985 3.79308686,7.11797727 3.93617645,6.37037727 C4.1386846,5.30965909 5.16456423,4.54628182 6.33353346,4.61181818 C10.0490124,4.82056364 13.7632787,5.05722273 17.4763324,5.31572727 C18.6222618,5.39461364 19.5014139,6.34610455 19.5474936,7.54032273 C19.5741714,8.23452273 19.46261,8.93357727 19.4080419,9.69695455 C14.1610193,9.37776818 9.01343178,9.06343636 3.70214008,8.73939545 L3.70214008,8.73939545 Z" id="Shape" fill="#00ADEE"></path>
                                    <path d="M84.7575444,8.83891364 C80.5582286,9.10348636 76.3916537,9.36563182 72.11473,9.63384545 C72.0686503,8.84983636 71.963152,8.12044091 71.9995307,7.39832727 C72.0540988,6.28056818 72.8398789,5.3667 73.9542801,5.27689091 C76.8039457,5.04508636 79.6596745,4.87517727 82.5166159,4.74895909 C83.5582596,4.70162727 84.3779932,5.45286818 84.6399199,6.46746818 C84.6932754,6.67621364 84.7454182,6.89102727 84.7514813,7.1022 C84.7696706,7.62406364 84.7575444,8.14471364 84.7575444,8.83891364 L84.7575444,8.83891364 Z" id="Shape" fill="#00ADEE"></path>
                                    <path d="M88.5215283,69.05955 C88.5785216,69.8472 88.6791694,70.5171273 88.6634053,71.1846273 C88.6355149,72.4286045 87.729685,73.3837364 86.4382408,73.4759727 C83.7680435,73.6677273 81.0929957,73.8279273 78.4191605,73.9541455 C77.0064539,74.0221091 76.0800094,73.1689227 75.9381324,71.7756682 C75.8762886,71.1712773 75.8374847,70.5620318 75.7804913,69.86055 C80.0513519,69.5911227 84.2421793,69.3277636 88.5215283,69.05955 L88.5215283,69.05955 Z" id="Shape" fill="#00ADEE"></path>
                                    <path d="M59.3118492,64.9647409 L59.3118492,61.3978636 L70.9845647,61.3978636 L70.9845647,64.9647409 L59.3118492,64.9647409 L59.3118492,64.9647409 Z" id="Shape" fill="#A5CD39"></path>
                                    <path d="M43.3040041,59.6987727 L43.3040041,56.1428182 C47.1261939,55.9595591 50.9835498,55.7726591 54.9548923,55.5821182 L54.9548923,59.1623455 C51.1205763,59.34075 47.2632204,59.5167273 43.3040041,59.6987727 L43.3040041,59.6987727 Z" id="Shape" fill="#00ADEE"></path>
                                </g>
                            </g>
                        </g>
                    </g>
                </g>
                <text id="WBooks" font-family="FuturaStd-Medium, Futura Std" font-size="62.1153846" font-weight="400">
                    <tspan x="104.708791" y="65.24" fill="#000000">WB</tspan>
                    <tspan x="201.733022" y="65.24" fill="#00ADEE">o</tspan>
                    <tspan x="235.27533" y="65.24" fill="#A5CD39">o</tspan>
                    <tspan x="268.817637" y="65.24" fill="#000000">ks</tspan>
                </text>
            </g>
        </g>
    </g>
</svg>